#usda 1.0
(
    defaultPrim = "InlinePallet"
    metersPerUnit = 1
    upAxis = "Z"
)

def Xform "InlinePallet" (
    customData = {
        string design = "800x800x20 mm; corner R50; visual only"
    }
)
{
    def Mesh "Plate" (
        prepend apiSchemas = ["MaterialBindingAPI"]
    )
    {
        float3[] extent = [(-0.4, -0.4, 0), (0.4, 0.4, 0.02)]
        int[] faceVertexCounts = [3, 3, 4, 3, 3, 4, 3, 3, 4, 3, 3, 4, 3, 3, 4, 3, 3, 4, 3, 3, 4, 3, 3, 4, 3, 3, 4, 3, 3, 4, 3, 3, 4, 3, 3, 4, 3, 3, 4, 3, 3, 4, 3, 3, 4, 3, 3, 4, 3, 3, 4, 3, 3, 4, 3, 3, 4, 3, 3, 4, 3, 3, 4, 3, 3, 4, 3, 3, 4, 3, 3, 4, 3, 3, 4, 3, 3, 4, 3, 3, 4, 3, 3, 4, 3, 3, 4, 3, 3, 4, 3, 3, 4, 3, 3, 4, 3, 3, 4, 3, 3, 4, 3, 3, 4, 3, 3, 4, 3, 3, 4, 3, 3, 4, 3, 3, 4, 3, 3, 4, 3, 3, 4, 3, 3, 4, 3, 3, 4, 3, 3, 4, 3, 3, 4, 3, 3, 4, 3, 3, 4, 3, 3, 4, 3, 3, 4, 3, 3, 4, 3, 3, 4, 3, 3, 4, 3, 3, 4, 3, 3, 4, 3, 3, 4, 3, 3, 4, 3, 3, 4, 3, 3, 4, 3, 3, 4, 3, 3, 4, 3, 3, 4, 3, 3, 4, 3, 3, 4, 3, 3, 4, 3, 3, 4, 3, 3, 4, 3, 3, 4, 3, 3, 4]
        int[] faceVertexIndices = [136, 1, 0, 137, 68, 69, 0, 1, 69, 68, 136, 2, 1, 137, 69, 70, 1, 2, 70, 69, 136, 3, 2, 137, 70, 71, 2, 3, 71, 70, 136, 4, 3, 137, 71, 72, 3, 4, 72, 71, 136, 5, 4, 137, 72, 73, 4, 5, 73, 72, 136, 6, 5, 137, 73, 74, 5, 6, 74, 73, 136, 7, 6, 137, 74, 75, 6, 7, 75, 74, 136, 8, 7, 137, 75, 76, 7, 8, 76, 75, 136, 9, 8, 137, 76, 77, 8, 9, 77, 76, 136, 10, 9, 137, 77, 78, 9, 10, 78, 77, 136, 11, 10, 137, 78, 79, 10, 11, 79, 78, 136, 12, 11, 137, 79, 80, 11, 12, 80, 79, 136, 13, 12, 137, 80, 81, 12, 13, 81, 80, 136, 14, 13, 137, 81, 82, 13, 14, 82, 81, 136, 15, 14, 137, 82, 83, 14, 15, 83, 82, 136, 16, 15, 137, 83, 84, 15, 16, 84, 83, 136, 17, 16, 137, 84, 85, 16, 17, 85, 84, 136, 18, 17, 137, 85, 86, 17, 18, 86, 85, 136, 19, 18, 137, 86, 87, 18, 19, 87, 86, 136, 20, 19, 137, 87, 88, 19, 20, 88, 87, 136, 21, 20, 137, 88, 89, 20, 21, 89, 88, 136, 22, 21, 137, 89, 90, 21, 22, 90, 89, 136, 23, 22, 137, 90, 91, 22, 23, 91, 90, 136, 24, 23, 137, 91, 92, 23, 24, 92, 91, 136, 25, 24, 137, 92, 93, 24, 25, 93, 92, 136, 26, 25, 137, 93, 94, 25, 26, 94, 93, 136, 27, 26, 137, 94, 95, 26, 27, 95, 94, 136, 28, 27, 137, 95, 96, 27, 28, 96, 95, 136, 29, 28, 137, 96, 97, 28, 29, 97, 96, 136, 30, 29, 137, 97, 98, 29, 30, 98, 97, 136, 31, 30, 137, 98, 99, 30, 31, 99, 98, 136, 32, 31, 137, 99, 100, 31, 32, 100, 99, 136, 33, 32, 137, 100, 101, 32, 33, 101, 100, 136, 34, 33, 137, 101, 102, 33, 34, 102, 101, 136, 35, 34, 137, 102, 103, 34, 35, 103, 102, 136, 36, 35, 137, 103, 104, 35, 36, 104, 103, 136, 37, 36, 137, 104, 105, 36, 37, 105, 104, 136, 38, 37, 137, 105, 106, 37, 38, 106, 105, 136, 39, 38, 137, 106, 107, 38, 39, 107, 106, 136, 40, 39, 137, 107, 108, 39, 40, 108, 107, 136, 41, 40, 137, 108, 109, 40, 41, 109, 108, 136, 42, 41, 137, 109, 110, 41, 42, 110, 109, 136, 43, 42, 137, 110, 111, 42, 43, 111, 110, 136, 44, 43, 137, 111, 112, 43, 44, 112, 111, 136, 45, 44, 137, 112, 113, 44, 45, 113, 112, 136, 46, 45, 137, 113, 114, 45, 46, 114, 113, 136, 47, 46, 137, 114, 115, 46, 47, 115, 114, 136, 48, 47, 137, 115, 116, 47, 48, 116, 115, 136, 49, 48, 137, 116, 117, 48, 49, 117, 116, 136, 50, 49, 137, 117, 118, 49, 50, 118, 117, 136, 51, 50, 137, 118, 119, 50, 51, 119, 118, 136, 52, 51, 137, 119, 120, 51, 52, 120, 119, 136, 53, 52, 137, 120, 121, 52, 53, 121, 120, 136, 54, 53, 137, 121, 122, 53, 54, 122, 121, 136, 55, 54, 137, 122, 123, 54, 55, 123, 122, 136, 56, 55, 137, 123, 124, 55, 56, 124, 123, 136, 57, 56, 137, 124, 125, 56, 57, 125, 124, 136, 58, 57, 137, 125, 126, 57, 58, 126, 125, 136, 59, 58, 137, 126, 127, 58, 59, 127, 126, 136, 60, 59, 137, 127, 128, 59, 60, 128, 127, 136, 61, 60, 137, 128, 129, 60, 61, 129, 128, 136, 62, 61, 137, 129, 130, 61, 62, 130, 129, 136, 63, 62, 137, 130, 131, 62, 63, 131, 130, 136, 64, 63, 137, 131, 132, 63, 64, 132, 131, 136, 65, 64, 137, 132, 133, 64, 65, 133, 132, 136, 66, 65, 137, 133, 134, 65, 66, 134, 133, 136, 67, 66, 137, 134, 135, 66, 67, 135, 134, 136, 0, 67, 137, 135, 68, 67, 0, 68, 135]
        rel material:binding = </InlinePallet/Metal>
        point3f[] points = [(0.4, 0.35, 0), (0.39975923, 0.35490087, 0), (0.39903927, 0.3597545, 0), (0.39784703, 0.36451423, 0), (0.39619398, 0.36913416, 0), (0.39409608, 0.37356985, 0), (0.3915735, 0.3777785, 0), (0.38865054, 0.38171968, 0), (0.38535535, 0.38535535, 0), (0.38171968, 0.38865054, 0), (0.3777785, 0.3915735, 0), (0.37356985, 0.39409608, 0), (0.36913416, 0.39619398, 0), (0.36451423, 0.39784703, 0), (0.3597545, 0.39903927, 0), (0.35490087, 0.39975923, 0), (0.35, 0.4, 0), (-0.35, 0.4, 0), (-0.35490087, 0.39975923, 0), (-0.3597545, 0.39903927, 0), (-0.36451423, 0.39784703, 0), (-0.36913416, 0.39619398, 0), (-0.37356985, 0.39409608, 0), (-0.3777785, 0.3915735, 0), (-0.38171968, 0.38865054, 0), (-0.38535535, 0.38535535, 0), (-0.38865054, 0.38171968, 0), (-0.3915735, 0.3777785, 0), (-0.39409608, 0.37356985, 0), (-0.39619398, 0.36913416, 0), (-0.39784703, 0.36451423, 0), (-0.39903927, 0.3597545, 0), (-0.39975923, 0.35490087, 0), (-0.4, 0.35, 0), (-0.4, -0.35, 0), (-0.39975923, -0.35490087, 0), (-0.39903927, -0.3597545, 0), (-0.39784703, -0.36451423, 0), (-0.39619398, -0.36913416, 0), (-0.39409608, -0.37356985, 0), (-0.3915735, -0.3777785, 0), (-0.38865054, -0.38171968, 0), (-0.38535535, -0.38535535, 0), (-0.38171968, -0.38865054, 0), (-0.3777785, -0.3915735, 0), (-0.37356985, -0.39409608, 0), (-0.36913416, -0.39619398, 0), (-0.36451423, -0.39784703, 0), (-0.3597545, -0.39903927, 0), (-0.35490087, -0.39975923, 0), (-0.35, -0.4, 0), (0.35, -0.4, 0), (0.35490087, -0.39975923, 0), (0.3597545, -0.39903927, 0), (0.36451423, -0.39784703, 0), (0.36913416, -0.39619398, 0), (0.37356985, -0.39409608, 0), (0.3777785, -0.3915735, 0), (0.38171968, -0.38865054, 0), (0.38535535, -0.38535535, 0), (0.38865054, -0.38171968, 0), (0.3915735, -0.3777785, 0), (0.39409608, -0.37356985, 0), (0.39619398, -0.36913416, 0), (0.39784703, -0.36451423, 0), (0.39903927, -0.3597545, 0), (0.39975923, -0.35490087, 0), (0.4, -0.35, 0), (0.4, 0.35, 0.02), (0.39975923, 0.35490087, 0.02), (0.39903927, 0.3597545, 0.02), (0.39784703, 0.36451423, 0.02), (0.39619398, 0.36913416, 0.02), (0.39409608, 0.37356985, 0.02), (0.3915735, 0.3777785, 0.02), (0.38865054, 0.38171968, 0.02), (0.38535535, 0.38535535, 0.02), (0.38171968, 0.38865054, 0.02), (0.3777785, 0.3915735, 0.02), (0.37356985, 0.39409608, 0.02), (0.36913416, 0.39619398, 0.02), (0.36451423, 0.39784703, 0.02), (0.3597545, 0.39903927, 0.02), (0.35490087, 0.39975923, 0.02), (0.35, 0.4, 0.02), (-0.35, 0.4, 0.02), (-0.35490087, 0.39975923, 0.02), (-0.3597545, 0.39903927, 0.02), (-0.36451423, 0.39784703, 0.02), (-0.36913416, 0.39619398, 0.02), (-0.37356985, 0.39409608, 0.02), (-0.3777785, 0.3915735, 0.02), (-0.38171968, 0.38865054, 0.02), (-0.38535535, 0.38535535, 0.02), (-0.38865054, 0.38171968, 0.02), (-0.3915735, 0.3777785, 0.02), (-0.39409608, 0.37356985, 0.02), (-0.39619398, 0.36913416, 0.02), (-0.39784703, 0.36451423, 0.02), (-0.39903927, 0.3597545, 0.02), (-0.39975923, 0.35490087, 0.02), (-0.4, 0.35, 0.02), (-0.4, -0.35, 0.02), (-0.39975923, -0.35490087, 0.02), (-0.39903927, -0.3597545, 0.02), (-0.39784703, -0.36451423, 0.02), (-0.39619398, -0.36913416, 0.02), (-0.39409608, -0.37356985, 0.02), (-0.3915735, -0.3777785, 0.02), (-0.38865054, -0.38171968, 0.02), (-0.38535535, -0.38535535, 0.02), (-0.38171968, -0.38865054, 0.02), (-0.3777785, -0.3915735, 0.02), (-0.37356985, -0.39409608, 0.02), (-0.36913416, -0.39619398, 0.02), (-0.36451423, -0.39784703, 0.02), (-0.3597545, -0.39903927, 0.02), (-0.35490087, -0.39975923, 0.02), (-0.35, -0.4, 0.02), (0.35, -0.4, 0.02), (0.35490087, -0.39975923, 0.02), (0.3597545, -0.39903927, 0.02), (0.36451423, -0.39784703, 0.02), (0.36913416, -0.39619398, 0.02), (0.37356985, -0.39409608, 0.02), (0.3777785, -0.3915735, 0.02), (0.38171968, -0.38865054, 0.02), (0.38535535, -0.38535535, 0.02), (0.38865054, -0.38171968, 0.02), (0.3915735, -0.3777785, 0.02), (0.39409608, -0.37356985, 0.02), (0.39619398, -0.36913416, 0.02), (0.39784703, -0.36451423, 0.02), (0.39903927, -0.3597545, 0.02), (0.39975923, -0.35490087, 0.02), (0.4, -0.35, 0.02), (0, 0, 0), (0, 0, 0.02)]
        uniform token subdivisionScheme = "none"
    }

    def Material "Metal"
    {
        token outputs:surface.connect = </InlinePallet/Metal/Surface.outputs:surface>

        def Shader "Surface"
        {
            uniform token info:id = "UsdPreviewSurface"
            color3f inputs:diffuseColor = (0.45, 0.48, 0.52)
            float inputs:metallic = 1
            float inputs:roughness = 0.35
            token outputs:surface
        }
    }
}

